<?xml version="1.0" encoding="UTF-8"?>
<svg width="1208px" height="310px" viewBox="0 0 1208 310" version="1.1" xmlns="http://www.w3.org/2000/svg" xmlns:xlink="http://www.w3.org/1999/xlink">
    <!-- Generator: Sketch 47.1 (45422) - http://www.bohemiancoding.com/sketch -->
    <title>Text</title>
    <desc>Created with Sketch.</desc>
    <defs></defs>
    <g id="Page-1" stroke="none" stroke-width="1" fill="none" fill-rule="evenodd">
        <g id="HOME-Copy" transform="translate(-105.000000, -330.000000)" fill="#FFFFFF">
            <g id="Text" transform="translate(103.000000, 330.000000)">
                <g id="Group">
                    <g id="Text_col_1" transform="translate(0.000000, 139.000000)" font-family="OpenSans-Bold, Open Sans" font-weight="bold">
                        <text id="Compare-Your-Busines" font-size="30">
                            <tspan x="0.986328125" y="32">Compare Your Business</tspan>
                        </text>
                        <text id="Enter-your-desired-b" font-size="18" line-spacing="28">
                            <tspan x="53.1171071" y="84">Enter your desired business </tspan>
                            <tspan x="53.7718922" y="112">location to compare similar </tspan>
                            <tspan x="37.4901539" y="140">businesses’ performance in the </tspan>
                            <tspan x="154.591228" y="168">area.</tspan>
                        </text>
                    </g>
                    <g id="Text_col_2" transform="translate(421.000000, 89.000000)" font-family="OpenSans-Bold, Open Sans" font-weight="bold">
                        <text id="Concerned-about-comp" font-size="18" line-spacing="28">
                            <tspan x="57.9139821" y="84">Concerned about competition? </tspan>
                            <tspan x="61.2362477" y="112">Use our competitor tool find a </tspan>
                            <tspan x="92.7714039" y="140">great location with low </tspan>
                            <tspan x="141.590252" y="168">competition</tspan>
                        </text>
                        <text id="See-Potential-Compet" font-size="30">
                            <tspan x="0" y="32">See Potential Competitors</tspan>
                        </text>
                    </g>
                    <g id="Text_col_3" transform="translate(921.000000, 139.000000)" font-family="OpenSans-Bold, Open Sans" font-weight="bold">
                        <text id="Start-your-Business" font-size="30">
                            <tspan x="0" y="32">Start your Business</tspan>
                        </text>
                        <text id="Found-your-location?" font-size="18" line-spacing="28">
                            <tspan x="33.1317555" y="84">Found your location? </tspan>
                            <tspan x="226.253826" y="84">Get </tspan>
                            <tspan x="40.2157399" y="112">instant interest rate on</tspan>
                            <tspan x="250.652263" y="112"> </tspan>
                            <tspan x="15.7469899" y="140">personal </tspan>
                            <tspan x="98.9090992" y="140">loan</tspan>
                            <tspan x="138.248943" y="140">s</tspan>
                            <tspan x="147.196209" y="140"> from USBank.</tspan>
                        </text>
                    </g>
                    <g id="startup" transform="translate(1038.000000, 63.000000)" fill-rule="nonzero">
                        <circle id="Oval" cx="1" cy="55" r="1"></circle>
                        <circle id="Oval" cx="30" cy="27" r="1"></circle>
                        <path d="M44.5372,13.4648191 C43.592378,12.5201067 42.3361663,12 41,12 C39.6638337,12 38.407505,12.5203408 37.4628,13.4648191 C35.5124,15.4148682 35.5124,18.5877066 37.4628,20.5376387 C38.4381757,21.5126633 39.7188537,22 41,22 C42.2807951,22 43.5620584,21.5124292 44.5372,20.5376387 C46.4876,18.5875895 46.4876,15.4147512 44.5372,13.4648191 Z M42.8752451,18.8758485 C41.8412205,19.909508 40.1586624,19.909508 39.124872,18.8758485 C38.0908474,17.842189 38.0908474,16.1601517 39.124872,15.1263752 C39.625788,14.6255793 40.2916469,14.3498432 41,14.3498432 C41.7083531,14.3498432 42.374212,14.6255793 42.875128,15.1263752 C43.9091526,16.1601517 43.9091526,17.842189 42.8752451,18.8758485 Z" id="Shape"></path>
                        <path d="M14.3791944,45.4390179 C13.8255418,45.1633065 13.1534406,45.3887161 12.8777297,45.942258 L11.5440115,48.6207402 C10.964037,49.7852637 9.79761913,50.5639921 8.49959166,50.6527729 L6.94838303,50.758953 C6.68616765,50.7764638 6.51373678,50.6458579 6.43399029,50.5661112 C6.3542438,50.4863646 6.22330341,50.3135989 6.24114878,50.0516062 L6.34732872,48.5005068 C6.43622096,47.202589 7.21494822,46.0360578 8.37935849,45.4560825 L11.0577252,44.1223623 C11.6113777,43.846651 11.8366755,43.1744373 11.5609646,42.6208955 C11.2853652,42.0673536 10.6131525,41.841944 10.0594999,42.1176553 L7.38113321,43.4513755 C5.50826181,44.3840204 4.2559631,46.2600175 4.11297708,48.3474826 L4.00679714,49.898582 C3.9494689,50.7358656 4.25685537,51.5563076 4.85021386,52.1496669 C5.39650519,52.6959591 6.13541497,53 6.90276581,53 C6.96868213,53 7.0350446,52.9977693 7.10129553,52.9931964 L8.65250416,52.8870163 C10.7399661,52.7441417 12.6159604,51.4919526 13.548604,49.6188554 L14.8823222,46.9404847 C15.1580331,46.3868314 14.9327354,45.7147292 14.3791944,45.4390179 Z" id="Shape"></path>
                        <path d="M56.22878,0.735772908 C55.7042919,0.225168324 54.9817432,-0.0418511385 54.2478385,0.0053476045 L53.207101,0.070919751 C43.8753112,0.659638805 35.1420456,5.11095336 29.2466487,12.283622 L26.7968855,15.2639641 L20.3860186,15.0779196 C20.375108,15.0775896 20.3640861,15.0774796 20.3532868,15.0774796 C15.2689482,15.0774796 10.4888816,17.034082 6.89361698,20.5868601 L0.327441043,27.0757521 C0.0151530113,27.3843593 -0.0840443633,27.8458948 0.0744933039,28.2531902 C0.233030971,28.6605957 0.619355202,28.937627 1.06045509,28.9598511 L14.9596661,29.6655218 L14.392983,30.3550195 C14.1074148,30.7025739 14.0622138,31.1860035 14.2787558,31.5792163 C14.4965224,31.9748496 14.7247543,32.3642117 14.9627834,32.7473027 L11.6666696,36.614189 C11.3848867,36.9448002 11.3242104,37.407546 11.5111379,37.7983383 C12.231126,39.3017668 13.186694,40.6525971 14.3516786,41.8133121 C15.5449418,43.0024123 16.9402736,43.9747725 18.4987078,44.7036575 C18.6510109,44.7749507 18.8143358,44.8098271 18.9766588,44.8098271 C19.2283819,44.8098271 19.4779896,44.7257716 19.6810604,44.5630514 C20.3911399,43.993806 21.2097687,43.3186109 22.0015664,42.66575 C22.5659115,42.2003638 23.1432825,41.7243056 23.6829118,41.2853243 C24.0049971,41.4768697 24.3310904,41.6625842 24.6620823,41.8404871 C24.8295266,41.9304838 25.0131141,41.974822 25.1960336,41.974822 C25.4394067,41.974822 25.6812212,41.8964875 25.8813973,41.742899 L26.6432465,41.1586908 L27.3604513,54.9519459 C27.3831631,55.3878466 27.6633874,55.7696173 28.0755408,55.9262863 C28.2060226,55.9757955 28.3416258,56 28.4763383,56 C28.7674731,56 29.0533753,55.8874492 29.2669113,55.67632 L35.8331985,49.187428 C39.4284632,45.6345399 41.4082914,40.9109249 41.4082914,35.8864042 L41.4082914,29.8358334 L43.9986677,27.8494154 C51.7617808,21.8962126 56.4897437,12.9192098 56.9702553,3.22003309 L56.9968638,2.68247351 C57.0331582,1.95589892 56.7530453,1.24648751 56.22878,0.735772908 Z M3.68567854,26.8812361 L8.47431768,22.1490395 C11.643401,19.0173094 15.8560051,17.2908696 20.3371436,17.2865788 L25.0225774,17.422564 L16.7049165,27.5422385 L3.68567854,26.8812361 Z M20.5693834,40.9695658 C19.9858891,41.4505749 19.3876989,41.9439063 18.8325944,42.3950998 C17.7589025,41.8204634 16.7876366,41.1034606 15.9388366,40.2576239 C15.1167565,39.4385222 14.4170309,38.5058794 13.8527971,37.4785091 L16.2660432,34.6473547 C16.9957173,35.6147639 17.7944176,36.5311236 18.6572455,37.3896126 C18.6579135,37.3902728 18.6585815,37.3908229 18.6592495,37.391483 C18.6594721,37.391703 18.6596948,37.3920331 18.6599175,37.3922531 C18.6602515,37.3925832 18.6605855,37.3928032 18.6609195,37.3931333 C19.6176008,38.3445895 20.6466483,39.2177113 21.7382647,40.0073275 C21.3528312,40.3235261 20.9579343,40.6491864 20.5693834,40.9695658 Z M39.1731775,35.8864042 C39.1731775,40.3207756 37.4258118,44.4896678 34.2527205,47.6253587 L29.4640814,52.3575553 L28.7958629,39.508055 L39.1730662,31.550281 L39.1730662,35.8864042 L39.1731775,35.8864042 Z M54.7378134,3.1121031 C54.2892542,12.1664503 49.8755833,20.5467027 42.628497,26.1041621 L25.0980609,39.5474423 C23.6442794,38.7079868 22.2892499,37.7168132 21.0491157,36.5938352 L26.9593198,30.7532933 C27.3957437,30.3220134 27.3957437,29.6225039 26.9593198,29.1911139 C26.5227846,28.759724 25.815043,28.759724 25.3785078,29.1911139 L19.4738703,35.0261548 C18.3882659,33.8384848 17.4267972,32.5461854 16.6081684,31.1639994 L30.9818791,13.67637 C36.4852738,6.9806397 44.6379397,2.82516995 53.3493841,2.27572817 L54.3901216,2.21015602 C54.526504,2.20179447 54.6177968,2.26868686 54.6598805,2.30961444 C54.7018529,2.35043201 54.7712132,2.43921845 54.7645332,2.57465354 L54.7378134,3.1121031 Z" id="Shape"></path>
                    </g>
                    <g id="pie-chart" transform="translate(153.000000, 63.000000)" fill-rule="nonzero">
                        <path d="M42.6030103,26.6030103 L23.3969897,26.6030103 L23.3969897,7.39698965 C23.3969897,6.62088429 22.7761054,6 22,6 C9.87206021,6 0,15.8720602 0,28 C0,40.1279398 9.87206021,50 22,50 C34.1279398,50 44,40.1279398 44,28 C44,27.2342427 43.3687676,26.6030103 42.6030103,26.6030103 Z M22,47.2060207 C11.4139229,47.2060207 2.7939793,38.5860771 2.7939793,28 C2.7939793,17.8795861 10.6585136,9.55973659 20.6030103,8.84571966 L20.6030103,28 C20.6030103,28.7761054 21.2238946,29.3969897 22,29.3969897 L41.1542803,29.3969897 C40.4402634,39.3414864 32.1204139,47.2060207 22,47.2060207 Z" id="Shape"></path>
                        <path d="M49,22.4927023 C48.979655,17.0154799 47.0570544,11.7399381 43.5882353,7.63202123 C39.4785493,2.78107032 33.5785051,0 27.3732862,0 C26.6103494,0 26,0.636886333 26,1.43299425 L26,22.5670057 C26,23.3631137 26.6103494,24 27.3732862,24 L47.6267138,24 L47.6267138,24 C48.3896506,24 49,23.3631137 49,22.5670057 C49,22.5457762 49,22.5245467 49,22.4927023 Z M28.7465723,21.1446263 L28.7465723,2.92967713 C33.6497125,3.30119416 38.247678,5.66828837 41.5232198,9.54268023 C44.2697921,12.7801858 45.8973905,16.8562583 46.2025652,21.1446263 L28.7465723,21.1446263 Z" id="Shape"></path>
                    </g>
                    <g id="person-walking" transform="translate(601.000000, 0.000000)" fill-rule="nonzero">
                        <path d="M1.69278434,54.3783421 C0.638667533,56.0415107 0.696081303,58.0933892 2.5023185,59.32749 C4.04789717,60.3810426 6.79916501,60.2440383 7.85557837,58.5798076 C10.0395982,55.1345209 14,52.5399354 14,52.5399354 C14,52.5399354 12.5416903,49.5683225 11.8515767,44 C11.8504285,44.001062 4.17765229,50.4561954 1.69278434,54.3783421 Z" id="Shape"></path>
                        <path d="M30.824581,25.621499 C26.5601185,22.0197016 21.9853544,18.7880371 16.9790087,16.1888126 C16.4403513,15.8020912 15.8241184,15.4993494 15.1740146,15.297176 C14.7391553,15.1302533 14.3119442,15.0493839 13.9011223,15.0379793 C13.2138697,14.9633306 12.5255245,14.9965078 11.8950877,15.1572098 C10.2310404,15.5802188 9.10783585,16.5465041 8.46865816,17.7761332 C5.38421603,21.1944193 2.80783823,24.9092264 0.495872406,28.8345012 C-1.79970425,32.7286725 4.49155248,36.2133129 6.78494391,32.322252 C7.50169702,31.1040276 8.24030236,29.9034284 9.01168605,28.7256386 C9.67708642,32.9806117 10.3413942,37.2355847 11.0046093,41.4895209 C11.1390005,42.3521276 11.5716747,43.0944669 12.1758888,43.6978768 C13.1417573,49.7547853 14.9150657,55.7297876 17.7110584,61.2268313 C19.750964,65.2391962 26.030202,61.7317464 24.0001299,57.7380437 C21.9110568,53.6313312 20.5146994,49.085021 19.6548142,44.499313 C21.545032,43.2499849 22.2300994,41.0001576 21.8760933,38.7254473 C21.2183412,34.5243872 20.5638669,30.3212535 19.9061148,26.1191566 C21.8968529,27.4825313 23.8176638,28.9444006 25.6696402,30.5089119 C29.1736451,33.4585704 34.3427899,28.5887828 30.824581,25.621499 Z" id="Shape"></path>
                        <ellipse id="Oval" cx="13.5" cy="6" rx="6.5" ry="6"></ellipse>
                    </g>
                </g>
            </g>
        </g>
    </g>
</svg>