
<svg width="32px" height="63px" viewBox="0 0 32 63" version="1.1" xmlns="http://www.w3.org/2000/svg" xmlns:xlink="http://www.w3.org/1999/xlink">
    <!-- Generator: Sketch 47.1 (45422) - http://www.bohemiancoding.com/sketch -->
    <title>person-walking</title>
    <desc>Created with Sketch.</desc>
    <defs></defs>
    <g id="Page-1" stroke="none" stroke-width="1" fill="black" fill-rule="evenodd">
        <g id="HOME-Copy" transform="translate(-705.000000, -462.000000)" fill-rule="nonzero" fill="#FFFFFF">
            <g id="Text" transform="translate(160.000000, 462.000000)">
                <g id="Group">
                    <g id="person-walking" transform="translate(545.000000, 0.000000)">
                        <path d="M1.69278434,54.3783421 C0.638667533,56.0415107 0.696081303,58.0933892 2.5023185,59.32749 C4.04789717,60.3810426 6.79916501,60.2440383 7.85557837,58.5798076 C10.0395982,55.1345209 14,52.5399354 14,52.5399354 C14,52.5399354 12.5416903,49.5683225 11.8515767,44 C11.8504285,44.001062 4.17765229,50.4561954 1.69278434,54.3783421 Z" id="Shape"></path>
                        <path d="M30.824581,25.621499 C26.5601185,22.0197016 21.9853544,18.7880371 16.9790087,16.1888126 C16.4403513,15.8020912 15.8241184,15.4993494 15.1740146,15.297176 C14.7391553,15.1302533 14.3119442,15.0493839 13.9011223,15.0379793 C13.2138697,14.9633306 12.5255245,14.9965078 11.8950877,15.1572098 C10.2310404,15.5802188 9.10783585,16.5465041 8.46865816,17.7761332 C5.38421603,21.1944193 2.80783823,24.9092264 0.495872406,28.8345012 C-1.79970425,32.7286725 4.49155248,36.2133129 6.78494391,32.322252 C7.50169702,31.1040276 8.24030236,29.9034284 9.01168605,28.7256386 C9.67708642,32.9806117 10.3413942,37.2355847 11.0046093,41.4895209 C11.1390005,42.3521276 11.5716747,43.0944669 12.1758888,43.6978768 C13.1417573,49.7547853 14.9150657,55.7297876 17.7110584,61.2268313 C19.750964,65.2391962 26.030202,61.7317464 24.0001299,57.7380437 C21.9110568,53.6313312 20.5146994,49.085021 19.6548142,44.499313 C21.545032,43.2499849 22.2300994,41.0001576 21.8760933,38.7254473 C21.2183412,34.5243872 20.5638669,30.3212535 19.9061148,26.1191566 C21.8968529,27.4825313 23.8176638,28.9444006 25.6696402,30.5089119 C29.1736451,33.4585704 34.3427899,28.5887828 30.824581,25.621499 Z" id="Shape"></path>
                        <ellipse id="Oval" cx="13.5" cy="6" rx="6.5" ry="6"></ellipse>
                    </g>
                </g>
            </g>
        </g>
    </g>
</svg>