<svg width="542px" height="214px" viewBox="0 0 542 214" version="1.1" xmlns="http://www.w3.org/2000/svg" xmlns:xlink="http://www.w3.org/1999/xlink">
    <!-- Generator: Sketch 47.1 (45422) - http://www.bohemiancoding.com/sketch -->
    <title>Group 21</title>
    <desc>Created with Sketch.</desc>
    <defs>
        <rect id="path-1" x="0" y="0" width="541.265625" height="213.403791" rx="5"></rect>
    </defs>
    <g id="Page-1" stroke="none" stroke-width="1" fill="none" fill-rule="evenodd">
        <g id="Artboard-2" transform="translate(-85.000000, -1223.000000)">
            <g id="Group-16" transform="translate(0.000000, 580.000000)">
                <g id="Group-15">
                    <g id="Main-View" transform="translate(85.201563, 181.532701)">
                        <g id="Group-21" transform="translate(0.000000, 461.000000)">
                            <g id="Walkability" transform="translate(0.335938, 0.475829)">
                                <g id="Base">
                                    <use fill="#FFFFFF" fill-rule="evenodd" xlink:href="#path-1"></use>
                                    <rect stroke="#E0E6EF" stroke-width="1" x="0.5" y="0.5" width="540.265625" height="212.403791" rx="5"></rect>
                                </g>
                                <g id="Information" transform="translate(250.585938, 161.305213)" font-size="14" font-family="Avenir-Medium, Avenir" fill="#333333" font-weight="400">
                                    <text id="Great!">
                                        <tspan x="0.577046875" y="14.0180095">Great!</tspan>
                                    </text>
                                </g>
                                <text id="73%" font-family="Avenir-Heavy, Avenir" font-size="36" font-weight="600" fill="#333333">
                                    <tspan x="242.565984" y="121.207583">73</tspan>
                                    <tspan x="285.189984" y="121.207583" font-size="16">%</tspan>
                                </text>
                                <g id="Chart" transform="translate(200.468750, 49.092891)" stroke-width="10" stroke-linecap="round" stroke-linejoin="round">
                                    <path d="M135.201722,96.1819905 C138.507332,88.0694055 140.328125,79.1983992 140.328125,69.903702 C140.328125,31.2969534 108.914604,0 70.1640625,0 C31.4135208,0 0,31.2969534 0,69.903702 C0,79.1983992 1.82079334,88.0694055 5.12640313,96.1819905" id="Oval-4" stroke="#E6E6E6"></path>
                                    <path d="M135.201722,96.1819905 C138.507332,88.0694055 140.328125,79.1983992 140.328125,69.903702 C140.328125,31.2969534 108.914604,0 70.1640625,0 C31.4135208,0 0,31.2969534 0,69.903702 C0,79.1983992 1.82079334,88.0694055 5.12640313,96.1819905" id="Oval-4" stroke="#70D56F" stroke-dasharray="211,1000" transform="translate(70.164063, 48.090995) scale(-1, 1) translate(-70.164063, -48.090995) "></path>
                                </g>
                                <text font-family="Avenir-Heavy, Avenir" font-size="14" font-weight="600" fill="#333333">
                                    <tspan x="32.075" y="32.0521327">Walkability</tspan>
                                </text>
                            </g>
                            <g id="person-walking" transform="translate(16.798437, 20.467299)" fill-rule="nonzero" fill="#010002">
                                <path d="M0.2968,13.7378667 C0.052,14.1554667 0.0653333333,14.6706667 0.4848,14.9805333 C0.843733333,15.2450667 1.48266667,15.2106667 1.728,14.7928 C2.2352,13.9277333 3.15493333,13.2762667 3.15493333,13.2762667 C3.15493333,13.2762667 2.81626667,12.5301333 2.656,11.132 C2.65573333,11.1322667 0.873866667,12.7530667 0.2968,13.7378667 Z" id="Shape"></path>
                                <path d="M7.53173333,6.21306667 C6.49093333,5.28666667 5.3744,4.45546667 4.15253333,3.78693333 C4.02106667,3.68746667 3.87066667,3.6096 3.712,3.5576 C3.60586667,3.51466667 3.5016,3.49386667 3.40133333,3.49093333 C3.2336,3.47173333 3.0656,3.48026667 2.91173333,3.5216 C2.5056,3.6304 2.23146667,3.87893333 2.07546667,4.1952 C1.32266667,5.0744 0.693866667,6.02986667 0.1296,7.03946667 C-0.430666667,8.04106667 1.1048,8.93733333 1.66453333,7.93653333 C1.83946667,7.6232 2.01973333,7.3144 2.208,7.01146667 C2.3704,8.10586667 2.53253333,9.20026667 2.6944,10.2944 C2.7272,10.5162667 2.8328,10.7072 2.98026667,10.8624 C3.216,12.4202667 3.6488,13.9570667 4.3312,15.3709333 C4.82906667,16.4029333 6.3616,15.5008 5.86613333,14.4736 C5.35626667,13.4173333 5.01546667,12.248 4.8056,11.0685333 C5.26693333,10.7472 5.43413333,10.1685333 5.34773333,9.58346667 C5.1872,8.50293333 5.02746667,7.42186667 4.86693333,6.34106667 C5.3528,6.69173333 5.8216,7.06773333 6.2736,7.47013333 C7.1288,8.2288 8.3904,6.97626667 7.53173333,6.21306667 Z" id="Shape"></path>
                                <circle id="Oval" cx="3.26773333" cy="1.5488" r="1.5488"></circle>
                            </g>
                        </g>
                    </g>
                </g>
            </g>
        </g>
    </g>
</svg>