<?xml version="1.0" encoding="UTF-8"?>
<svg width="244px" height="80px" viewBox="0 0 244 80" version="1.1" xmlns="http://www.w3.org/2000/svg" xmlns:xlink="http://www.w3.org/1999/xlink">
    <!-- Generator: Sketch 47.1 (45422) - http://www.bohemiancoding.com/sketch -->
    <title>Group 2</title>
    <desc>Created with Sketch.</desc>
    <defs></defs>
    <g id="Page-1" stroke="none" stroke-width="1" fill="none" fill-rule="evenodd">
        <g id="HOME-Copy" transform="translate(-692.000000, -162.000000)" fill="#FFFFFF">
            <g id="Group-2" transform="translate(690.000000, 128.000000)">
                <g id="map-(1)" opacity="0.379698822" transform="translate(170.001538, 77.886388) scale(-1, 1) rotate(-22.000000) translate(-170.001538, -77.886388) translate(109.001538, 18.886388)" fill-rule="nonzero">
                    <path d="M25.8017716,56.0461399 C24.8352462,52.6184554 24.3497967,49.0585601 24.3497967,45.4643881 C24.3497967,42.761414 22.3948787,40.5676959 19.9763783,40.5676959 C17.557878,40.5676959 15.6029599,42.761414 15.6029599,45.4643881 C15.6029599,50.0574853 16.2283588,54.6065124 17.4572893,58.9841552 C18.0477008,61.0750428 19.7664543,62.4118398 21.6295305,62.4118398 C22.0624989,62.4118398 22.5042142,62.3383894 22.941556,62.1865919 C25.2463475,61.373741 26.5277591,58.6266967 25.8017716,56.0461399 Z" id="Shape"></path>
                    <path d="M43.3002551,78.6233105 C38.8765391,75.877135 35.0426519,72.4668173 31.8952034,68.4977768 C30.1206323,66.2523435 26.9223365,65.9202724 24.7409869,67.7703829 C22.5698067,69.6204934 22.2596381,72.9412046 24.039294,75.1919089 C27.9240285,80.0991821 32.6426589,84.2948744 38.0680669,87.6630243 C38.8867086,88.1743084 39.7917907,88.416773 40.6816187,88.416773 C42.4104272,88.416773 44.0934732,87.5048952 45.0443179,85.8550815 C46.4883815,83.3566417 45.7053329,80.114995 43.3002551,78.6233105 Z" id="Shape"></path>
                    <path d="M85.6811527,88.39286 C80.8620179,86.7439503 75.8542146,85.9048255 70.7978964,85.9048255 C66.6687496,85.9048255 62.571946,85.406045 58.6045151,84.414352 C55.6936283,83.6632472 52.8150847,85.6583692 52.1466589,88.8212244 C51.4836235,91.9782116 53.294842,95.1293308 56.1949477,95.8510956 C60.9547867,97.0364328 65.8655605,97.6408374 70.7978964,97.6408374 C74.7545462,97.6408374 78.6734623,98.2980541 82.4468341,99.5890154 C82.9858872,99.7709236 83.5249403,99.8589436 84.0639934,99.8589436 C86.3603596,99.8589436 88.4788384,98.256978 89.2065601,95.7513395 C90.1013882,92.6589003 88.5219626,89.366949 85.6811527,88.39286 Z" id="Shape"></path>
                    <path d="M117.848455,107.68978 C114.318912,102.520365 109.922172,98.0159364 104.779755,94.297841 C102.421202,92.5941184 98.9413707,92.8999148 97.008131,94.9628267 C95.0693677,97.0354465 95.4118273,100.09341 97.7703798,101.797133 C101.929607,104.806557 105.497815,108.47126 108.381104,112.684454 C109.41953,114.203728 111.247822,115.038601 113.120303,115.038601 C114.086923,115.038601 115.070114,114.815321 115.959404,114.344491 C118.566516,112.970835 119.417141,109.990534 117.848455,107.68978 Z" id="Shape" transform="translate(107.193379, 104.116529) rotate(-15.000000) translate(-107.193379, -104.116529) "></path>
                    <polygon id="Shape" points="30.3051825 37.4471039 37.4471039 30.3051825 25.8654733 18.7235519 37.4471039 7.14192135 30.3051825 0 18.7235519 11.5816306 7.14192135 0 0 7.14192135 11.5816306 18.7235519 0 30.3051825 7.14192135 37.4471039 18.7235519 25.8654733"></polygon>
                </g>
                <text id="SCOUT" font-family="OpenSans-Bold, Open Sans" font-size="60" font-weight="bold" letter-spacing="-1.37500012">
                    <tspan x="0" y="78">SCOUT</tspan>
                </text>
            </g>
        </g>
    </g>
</svg>